<svg xmlns="http://www.w3.org/2000/svg" xmlns:xlink="http://www.w3.org/1999/xlink" width="1080" zoomAndPan="magnify" viewBox="0 0 810 809.999993" height="1080" preserveAspectRatio="xMidYMid meet" version="1.0"><defs><clipPath id="55bf311632"><path d="M 96.472656 0 L 713.839844 0 L 713.839844 278.640625 L 96.472656 278.640625 Z M 96.472656 0 " clip-rule="nonzero"/></clipPath></defs><path fill="#373434" d="M 191.449219 602.078125 L 191.449219 810 L 286.429688 810 L 286.429688 684.679688 C 248.4375 665.199219 215.847656 636.769531 191.449219 602.078125 " fill-opacity="1" fill-rule="nonzero"/><path fill="#373434" d="M 523.878906 810 L 618.859375 810 L 618.859375 602.078125 C 594.46875 636.769531 561.871094 665.199219 523.878906 684.679688 L 523.878906 810 " fill-opacity="1" fill-rule="nonzero"/><path fill="#373434" d="M 333.917969 585.78125 L 333.917969 810 L 476.390625 810 L 476.390625 585.78125 L 405.15625 550.1875 Z M 428.898438 666.035156 L 381.410156 666.035156 L 381.410156 618.574219 L 428.898438 618.574219 L 428.898438 666.035156 " fill-opacity="1" fill-rule="nonzero"/><g clip-path="url(#55bf311632)"><path fill="#373434" d="M 713.839844 143.964844 L 604.878906 143.964844 C 575.546875 61.324219 497.816406 0 405.15625 0 C 312.492188 0 234.761719 61.324219 205.433594 143.964844 L 96.472656 143.964844 L 96.472656 191.425781 L 151.855469 191.425781 L 102.472656 246.835938 L 137.957031 278.398438 L 215.460938 191.425781 L 295.496094 191.425781 L 336.425781 109.617188 L 378.910156 130.851562 L 348.597656 191.425781 L 437.96875 191.425781 L 478.898438 109.617188 L 521.378906 130.851562 L 491.066406 191.425781 L 594.847656 191.425781 L 672.351562 278.398438 L 707.828125 246.835938 L 658.453125 191.425781 L 713.839844 191.425781 L 713.839844 143.964844 " fill-opacity="1" fill-rule="nonzero"/></g><path fill="#373434" d="M 618.859375 289.734375 L 573.554688 238.886719 L 236.757812 238.886719 L 191.449219 289.734375 C 191.449219 297.265625 191.449219 463.1875 191.449219 452.460938 C 191.449219 526.34375 229.222656 591.523438 286.429688 629.882812 L 286.429688 556.445312 L 333.917969 532.714844 L 333.917969 384.910156 L 238.941406 398.464844 L 238.941406 350.507812 L 381.410156 330.171875 L 381.410156 508.984375 L 405.15625 497.117188 L 523.878906 556.445312 L 523.878906 629.875 C 581.089844 591.523438 618.859375 526.34375 618.859375 452.460938 C 618.859375 447.316406 618.859375 284.957031 618.859375 289.734375 Z M 449.28125 381.042969 L 456.007812 334.042969 L 571.367188 350.503906 L 571.367188 398.464844 L 449.28125 381.042969 " fill-opacity="1" fill-rule="nonzero"/></svg>